<svg width="424" height="627" viewBox="0 0 424 627" fill="none" xmlns="http://www.w3.org/2000/svg">
<path d="M14.9533 0.0733643H147.787C156.031 0.0733643 162.74 6.78163 162.74 14.9587V611.639C162.74 619.884 156.032 626.592 147.787 626.592L14.9533 626.597C6.70855 626.597 0 619.889 0 611.644V14.9639C0 6.78684 6.70828 0.0785726 14.9533 0.0785726V0.0733643Z" fill="black"/>
<path d="M275.225 0H408.132C416.309 0 423.017 6.70827 423.017 14.8853V611.565C423.017 619.81 416.309 626.519 408.132 626.519L275.225 626.524C266.98 626.524 260.34 619.816 260.34 611.571V14.8905C260.34 6.71347 266.981 0.00520833 275.225 0.00520833V0Z" fill="white"/>
</svg>
