<svg width="1100" height="1100" viewBox="0 0 1100 1100" fill="none" xmlns="http://www.w3.org/2000/svg">
<circle cx="550" cy="550" r="550" fill="#0D0406"/>
<path d="M649.974 855.34H640.213V792.387C646.5 789.189 651 783.319 652.469 776.417C653.932 769.521 652.208 762.329 647.766 756.849C643.328 751.37 636.651 748.188 629.599 748.188H605.474C608.073 732.578 604.073 722.792 599.765 717.089L599.76 717.094C597.245 713.928 596.161 709.849 596.786 705.849L608.484 639.089C622.76 568.157 617.744 533.183 613.489 518.652L613.484 518.647C611.744 512.59 611.005 506.288 611.302 499.991C611.52 494.72 611.849 489.402 612.239 484.106V484.111C619.687 483.137 626.583 479.668 631.802 474.272C640.51 465.1 641.817 452.663 641.974 447.6V366.783C642.01 351.586 634.291 337.419 621.504 329.204L582.879 304.303V304.298C580.702 302.902 579.389 300.49 579.395 297.907V285.011C586.541 276.996 590.478 266.631 590.452 255.891V237.599C590.478 233.255 589.931 228.927 588.822 224.724C585.395 211.745 576.384 200.954 564.218 195.266C552.056 189.578 537.999 189.578 525.838 195.266C513.676 200.953 504.666 211.744 501.234 224.724C500.13 228.927 499.583 233.255 499.603 237.599V255.891C499.583 266.631 503.52 276.995 510.666 285.006V297.907C510.671 300.49 509.359 302.902 507.182 304.298L468.556 329.199V329.204C455.78 337.397 448.056 351.537 448.072 366.715C448.057 368.793 447.775 418.064 458.645 457.355C459.843 462.344 462.447 466.881 466.145 470.428C469.525 473.245 473.27 475.6 477.27 477.428C477.927 484.897 478.442 492.444 478.755 499.985C479.052 506.282 478.312 512.584 476.572 518.641C472.317 533.172 467.307 568.141 481.541 638.892L493.27 705.85C493.895 709.85 492.812 713.923 490.296 717.09C485.999 722.788 481.999 732.579 484.588 748.189H463.864C456.812 748.189 450.14 751.376 445.703 756.855C441.265 762.335 439.536 769.522 441 776.418C442.469 783.319 446.969 789.184 453.25 792.387V855.341H443.489C436.469 855.346 429.74 858.143 424.776 863.106C419.812 868.07 417.021 874.799 417.016 881.82V901.434C417.016 905.679 420.453 909.117 424.698 909.117H668.765C673.009 909.117 676.447 905.679 676.447 901.434V881.814C676.442 874.794 673.645 868.065 668.686 863.101C663.723 858.137 656.994 855.346 649.973 855.341L649.974 855.34ZM516.094 228.727C517.578 222.346 521.188 216.659 526.328 212.596C531.469 208.533 537.833 206.341 544.386 206.372C544.537 206.372 567.99 206.486 573.984 228.727C574.713 231.435 575.083 255.893 575.083 255.893H575.078C575.146 263.232 572.323 270.305 567.224 275.581C562.281 280.451 556.302 284.144 549.735 286.373C546.688 287.451 543.365 287.451 540.323 286.373C533.75 284.144 527.771 280.456 522.834 275.587C517.74 270.305 514.927 263.232 514.995 255.893C514.995 255.893 515.355 231.44 516.094 228.727H516.094ZM463.454 366.78C463.433 356.806 468.495 347.509 476.891 342.119L513.386 318.588L567.323 309.322H567.328C569.016 312.531 571.506 315.249 574.552 317.218L613.178 342.119C621.574 347.51 626.642 356.807 626.62 366.781V447.223C626.521 450.208 625.771 458.354 620.6 463.745C617.016 467.479 611.897 469.297 604.949 469.297L552.142 469.292C544.611 469.292 534.83 464.708 534.46 457.901C533.298 436.557 551.71 437.813 551.809 437.813H599.054C603.299 437.813 606.742 434.37 606.742 430.126C606.742 425.881 603.299 422.438 599.054 422.438H569.554C573.768 413.297 572.804 402.61 567.028 394.365C561.252 386.125 551.534 381.573 541.502 382.412L534.054 383.037C526.512 383.651 519.278 386.302 513.127 390.703C496.174 403.11 481.408 418.255 469.439 435.515C465.548 412.807 463.548 389.818 463.455 366.781L463.454 366.78ZM553.563 484.665V748.199H539.913V482.639C544.397 483.691 548.965 484.368 553.563 484.665V484.665ZM479.725 460.712L479.667 460.649C476.709 457.639 476.256 452.978 478.568 449.452C490.115 431.493 504.866 415.812 522.084 403.192C525.985 400.416 530.563 398.749 535.334 398.363L542.782 397.738C546.418 397.431 550.011 398.681 552.673 401.171C555.334 403.665 556.819 407.165 556.756 410.811C556.501 416.874 552.188 421.999 546.256 423.285L541.235 424.462C534.72 425.957 528.709 429.139 523.803 433.686C515.876 441.379 508.658 449.769 502.235 458.765C499.626 462.317 495.6 464.557 491.204 464.901C486.944 465.27 482.746 463.734 479.725 460.713L479.725 460.712ZM491.329 522.963C493.313 516.041 494.256 508.869 494.126 501.671C501.152 501.113 509.719 497.973 517.303 488.16C519.183 490.993 521.657 493.379 524.548 495.16V748.187H500.225C498.204 738.723 499.001 731.083 502.574 726.343C507.678 719.785 509.798 711.389 508.418 703.192L496.657 636.047C482.521 565.807 488.225 533.563 491.329 522.964L491.329 522.963ZM587.657 893.749H432.39V881.817C432.395 875.687 437.364 870.718 443.494 870.708H589.147C591.173 878.348 590.647 886.437 587.653 893.749L587.657 893.749ZM590.985 779.432H551.511C547.933 779.432 545.032 782.328 545.032 785.906C545.032 789.484 547.933 792.385 551.511 792.385H584.235V805.651C584.235 813.312 581.35 820.692 576.152 826.328C570.959 831.958 563.834 835.432 556.193 836.052L468.625 843.141V792.391H485.636C489.214 792.391 492.115 789.49 492.115 785.912C492.115 782.334 489.214 779.433 485.636 779.433H462.36C458.308 778.652 455.516 774.922 455.902 770.818C456.292 766.714 459.735 763.573 463.86 763.568H590.693C593.516 768.454 593.626 774.449 590.98 779.438L590.985 779.432ZM581.646 703.197V703.192C580.271 711.39 582.391 719.785 587.49 726.343C591.063 731.082 591.86 738.718 589.839 748.187H568.932V501.787H595.948C595.828 508.948 596.771 516.084 598.74 522.964C601.849 533.573 607.547 565.824 593.386 636.24L581.646 703.197Z" fill="white"/>
<path d="M395.614 314.886L373.983 305.579C368.109 303.063 363.666 298.048 361.874 291.907L351.01 254.866C350.046 251.595 347.046 249.345 343.635 249.345C340.223 249.345 337.218 251.595 336.26 254.866L325.395 291.907C323.603 298.048 319.161 303.063 313.286 305.579L291.646 314.886C288.828 316.1 287 318.876 287 321.949C287 325.022 288.828 327.798 291.646 329.011L313.657 338.48V338.475C319.37 340.933 323.735 345.746 325.62 351.673L336.308 385.209L336.302 385.204C337.318 388.396 340.282 390.558 343.631 390.558C346.974 390.558 349.938 388.396 350.953 385.204L361.641 351.668V351.673C363.526 345.746 367.891 340.933 373.605 338.475L395.61 329.006V329.011C398.433 327.798 400.261 325.022 400.261 321.949C400.261 318.876 398.433 316.1 395.61 314.886H395.614ZM367.531 324.355C357.724 328.569 350.229 336.834 346.99 347.006L343.626 357.558L340.271 347.006C337.032 336.834 329.537 328.568 319.735 324.355L314.142 321.938L319.366 319.694H319.361C329.449 315.371 337.069 306.761 340.147 296.23L343.637 284.334L347.126 296.23C350.199 306.766 357.824 315.37 367.908 319.694L373.121 321.949L367.531 324.355Z" fill="#FECC00"/>
<path d="M808.174 582.78L786.543 573.473C780.668 570.952 776.226 565.936 774.434 559.801L763.569 522.754H763.564C762.606 519.483 759.601 517.233 756.189 517.233C752.778 517.233 749.773 519.483 748.814 522.754L737.95 559.801C736.158 565.936 731.715 570.952 725.84 573.473L704.21 582.78C701.392 583.994 699.564 586.77 699.564 589.838C699.564 592.905 701.392 595.681 704.21 596.895L726.215 606.364C731.929 608.822 736.293 613.64 738.184 619.562L748.866 653.092C749.882 656.285 752.845 658.446 756.189 658.446C759.538 658.446 762.502 656.285 763.517 653.092L774.205 619.562H774.2C776.085 613.64 780.45 608.822 786.163 606.364L808.174 596.895C810.992 595.681 812.82 592.905 812.82 589.838C812.82 586.77 810.992 583.994 808.174 582.78H808.174ZM780.091 592.249V592.244C770.284 596.463 762.794 604.728 759.555 614.894L756.191 625.436L752.826 614.894H752.831C749.592 604.728 742.097 596.462 732.295 592.244L726.702 589.827L731.921 587.582V587.588C742.004 583.259 749.629 574.655 752.702 564.118L756.191 552.222L759.681 564.118H759.686C762.759 574.655 770.384 583.264 780.468 587.588L785.686 589.832L780.091 592.249Z" fill="#FECC00"/>
<path d="M524 779.434H518.464C514.886 779.434 511.985 782.335 511.985 785.913C511.985 789.491 514.886 792.387 518.464 792.387H524C527.579 792.387 530.48 789.491 530.48 785.913C530.48 782.335 527.579 779.434 524 779.434Z" fill="white"/>
</svg>
