<svg width="61" height="70" viewBox="0 0 61 70" fill="none" xmlns="http://www.w3.org/2000/svg">
<path d="M30.5098 0V8.88068C16.2946 8.88068 3.91956 18.7627 0.761494 32.6496C-2.39542 46.5375 4.48453 60.8223 17.2982 66.9907C30.1114 73.1584 45.5321 69.6157 54.3805 58.4675C63.2286 47.3199 63.2042 31.4572 54.3209 20.338L48.3654 25.1116C55.052 33.4813 55.0746 45.3234 48.4165 53.7134C41.7567 62.1042 30.2391 64.7513 20.595 60.1084C10.9506 55.4655 5.821 44.8036 8.19805 34.3507C10.5739 23.8975 19.811 16.5189 30.5107 16.5189V25.6787L45.7566 12.8393L30.5098 0Z" fill="#EEEEEE"/>
</svg>
